<?xml version="1.0" encoding="UTF-8" standalone="no"?>
<!-- Created with Inkscape (http://www.inkscape.org/) -->

<svg
   xmlns:dc="http://purl.org/dc/elements/1.1/"
   xmlns:cc="http://creativecommons.org/ns#"
   xmlns:rdf="http://www.w3.org/1999/02/22-rdf-syntax-ns#"
   xmlns:svg="http://www.w3.org/2000/svg"
   xmlns="http://www.w3.org/2000/svg"
   xmlns:sodipodi="http://sodipodi.sourceforge.net/DTD/sodipodi-0.dtd"
   xmlns:inkscape="http://www.inkscape.org/namespaces/inkscape"
   width="50.327999"
   height="44.424"
   id="svg3200"
   sodipodi:version="0.32"
   inkscape:version="0.48.0 r9654"
   version="1.0"
   sodipodi:docname="bicycle.svg"
   inkscape:output_extension="org.inkscape.output.svg.inkscape"
   inkscape:export-filename="/home/milo/Desktop/AND/svg/residential.png"
   inkscape:export-xdpi="90"
   inkscape:export-ydpi="90">
  <defs
     id="defs3202">
    <inkscape:perspective
       sodipodi:type="inkscape:persp3d"
       inkscape:vp_x="0 : 526.18109 : 1"
       inkscape:vp_y="0 : 1000 : 0"
       inkscape:vp_z="744.09448 : 526.18109 : 1"
       inkscape:persp3d-origin="372.04724 : 350.78739 : 1"
       id="perspective3208" />
    <inkscape:perspective
       id="perspective2458"
       inkscape:persp3d-origin="372.04724 : 350.78739 : 1"
       inkscape:vp_z="744.09448 : 526.18109 : 1"
       inkscape:vp_y="0 : 1000 : 0"
       inkscape:vp_x="0 : 526.18109 : 1"
       sodipodi:type="inkscape:persp3d" />
    <inkscape:perspective
       id="perspective2532"
       inkscape:persp3d-origin="372.04724 : 350.78739 : 1"
       inkscape:vp_z="744.09448 : 526.18109 : 1"
       inkscape:vp_y="0 : 1000 : 0"
       inkscape:vp_x="0 : 526.18109 : 1"
       sodipodi:type="inkscape:persp3d" />
    <inkscape:perspective
       id="perspective2680"
       inkscape:persp3d-origin="372.04724 : 350.78739 : 1"
       inkscape:vp_z="744.09448 : 526.18109 : 1"
       inkscape:vp_y="0 : 1000 : 0"
       inkscape:vp_x="0 : 526.18109 : 1"
       sodipodi:type="inkscape:persp3d" />
    <inkscape:perspective
       id="perspective2749"
       inkscape:persp3d-origin="372.04724 : 350.78739 : 1"
       inkscape:vp_z="744.09448 : 526.18109 : 1"
       inkscape:vp_y="0 : 1000 : 0"
       inkscape:vp_x="0 : 526.18109 : 1"
       sodipodi:type="inkscape:persp3d" />
    <inkscape:perspective
       sodipodi:type="inkscape:persp3d"
       inkscape:vp_x="0 : 526.18109 : 1"
       inkscape:vp_y="0 : 1000 : 0"
       inkscape:vp_z="744.09448 : 526.18109 : 1"
       inkscape:persp3d-origin="372.04724 : 350.78739 : 1"
       id="perspective2474" />
    <inkscape:perspective
       id="perspective10"
       inkscape:persp3d-origin="372.04724 : 350.78739 : 1"
       inkscape:vp_z="744.09448 : 526.18109 : 1"
       inkscape:vp_y="0 : 1000 : 0"
       inkscape:vp_x="0 : 526.18109 : 1"
       sodipodi:type="inkscape:persp3d" />
  </defs>
  <sodipodi:namedview
     id="base"
     pagecolor="#ffffff"
     bordercolor="#666666"
     borderopacity="1.0"
     gridtolerance="10000"
     guidetolerance="10"
     objecttolerance="10"
     inkscape:pageopacity="0.0"
     inkscape:pageshadow="2"
     inkscape:zoom="5.6"
     inkscape:cx="10.670611"
     inkscape:cy="24.396646"
     inkscape:document-units="px"
     inkscape:current-layer="layer1"
     showgrid="false"
     inkscape:window-width="1280"
     inkscape:window-height="723"
     inkscape:window-x="0"
     inkscape:window-y="24"
     fit-margin-top="0"
     fit-margin-left="0"
     fit-margin-right="0"
     fit-margin-bottom="0"
     inkscape:window-maximized="1" />
  <metadata
     id="metadata3205">
    <rdf:RDF>
      <cc:Work
         rdf:about="">
        <dc:format>image/svg+xml</dc:format>
        <dc:type
           rdf:resource="http://purl.org/dc/dcmitype/StillImage" />
      </cc:Work>
    </rdf:RDF>
  </metadata>
  <g
     inkscape:label="Layer 1"
     inkscape:groupmode="layer"
     id="layer1"
     transform="translate(-23.280282,-21.84714)">
    <text
       xml:space="preserve"
       style="font-style:normal;font-variant:normal;font-weight:normal;font-stretch:normal;fill:#000000;fill-opacity:1;stroke:none;font-family:RoadSign"
       x="-35.535702"
       y="68.785698"
       id="text3301"><tspan
         sodipodi:role="line"
         id="tspan3303"
         x="-35.535702"
         y="68.785698" /></text>
    <text
       xml:space="preserve"
       style="font-size:72px;font-style:normal;font-variant:normal;font-weight:normal;font-stretch:normal;fill:#000000;fill-opacity:1;stroke:none;font-family:RoadSign"
       x="-14.2857"
       y="63.25"
       id="text3305"><tspan
         sodipodi:role="line"
         id="tspan3307"
         x="-14.2857"
         y="63.25" /></text>
    <text
       xml:space="preserve"
       style="font-size:72px;font-style:normal;font-variant:normal;font-weight:normal;font-stretch:normal;fill:#000000;fill-opacity:1;stroke:none;font-family:RoadSign"
       x="-10.5357"
       y="52.535702"
       id="text3309"><tspan
         sodipodi:role="line"
         id="tspan3311"
         x="-10.5357"
         y="52.535702" /></text>
    <path
       inkscape:connector-curvature="0"
       style="font-size:72px;font-style:normal;font-variant:normal;font-weight:normal;font-stretch:normal;fill:#000000;fill-opacity:1;stroke:none;font-family:DNR Recreation Symbols"
       d="m 57.120282,25.87914 c -3.8e-5,-1.151953 -0.408037,-2.111952 -1.224,-2.88 -0.768036,-0.76795 -1.728035,-1.15195 -2.88,-1.152 -1.104032,5e-5 -2.064031,0.40805 -2.88,1.224 -0.76803,0.768048 -1.152029,1.704047 -1.152,2.808 -2.9e-5,1.104045 0.38397,2.064044 1.152,2.88 0.815969,0.768043 1.775968,1.152042 2.88,1.152 1.151965,4.2e-5 2.111964,-0.383957 2.88,-1.152 0.815963,-0.767956 1.223962,-1.727955 1.224,-2.88"
       id="path3555" />
    <path
       style="font-size:72px;font-style:normal;font-variant:normal;font-weight:normal;font-stretch:normal;fill:#000000;fill-opacity:1;stroke:none;font-family:DNR Recreation Symbols"
       d="M 39.375 22.53125 C 36.35096 22.531278 33.753713 23.621277 31.59375 25.78125 C 29.481717 27.893272 28.437468 30.44477 28.4375 33.46875 C 28.437468 36.492764 29.481717 39.090011 31.59375 41.25 C 33.753713 43.362007 36.35096 44.437506 39.375 44.4375 C 42.398954 44.437506 44.981701 43.362007 47.09375 41.25 C 49.253697 39.090011 50.312446 36.492764 50.3125 33.46875 C 50.312446 30.44477 49.253697 27.893272 47.09375 25.78125 C 44.981701 23.621277 42.398954 22.531278 39.375 22.53125 z M 39.375 24.625 C 41.822955 24.625026 43.928202 25.490775 45.65625 27.21875 C 47.384199 28.946771 48.249948 31.020769 48.25 33.46875 C 48.249948 35.916764 47.384199 38.022012 45.65625 39.75 C 43.928202 41.478009 41.822955 42.343758 39.375 42.34375 C 36.926959 42.343758 34.852961 41.478009 33.125 39.75 C 31.396965 38.022012 30.531216 35.916764 30.53125 33.46875 C 30.531216 31.020769 31.396965 28.946771 33.125 27.21875 C 34.852961 25.490775 36.926959 24.625026 39.375 24.625 z "
       transform="translate(23.280282,21.84714)"
       id="path3553" />
    <path
       inkscape:connector-curvature="0"
       style="font-size:72px;font-style:normal;font-variant:normal;font-weight:normal;font-stretch:normal;fill:#000000;fill-opacity:1;stroke:none;font-family:DNR Recreation Symbols"
       d="m 59.640282,37.75914 c -4e-5,-1.199964 -0.576039,-1.799964 -1.728,-1.8 l -4.824,0 -3.6,-6.768 c -0.576029,-0.815956 -1.368029,-1.223956 -2.376,-1.224 -1.056026,4.4e-5 -1.848026,0.384044 -2.376,1.152 l -7.776,7.632 c -0.624017,0.624035 -0.936016,1.488034 -0.936,2.592 -1.6e-5,1.440031 0.455983,2.40003 1.368,2.88 l 8.784,4.824 -0.072,8.784 c -2.6e-5,1.440015 0.719973,2.160014 2.16,2.16 1.48797,1.4e-5 2.231969,-0.719985 2.232,-2.16 l 0,-10.8 c -3.1e-5,-0.575972 -0.264031,-1.319972 -0.792,-2.232 l -5.904,-3.168 4.752,-4.824 2.016,3.888 c 0.287969,0.528033 0.791968,0.792033 1.512,0.792 l 5.76,0 c 1.199961,3.3e-5 1.79996,-0.575967 1.8,-1.728"
       id="path3551" />
    <path
       style="font-size:72px;font-style:normal;font-variant:normal;font-weight:normal;font-stretch:normal;fill:#000000;fill-opacity:1;stroke:none;font-family:DNR Recreation Symbols"
       d="M 10.9375 22.53125 C 7.913488 22.531278 5.316241 23.621277 3.15625 25.78125 C 1.044245 27.893272 -4e-06 30.44477 0 33.46875 C -4e-06 36.492764 1.044245 39.090011 3.15625 41.25 C 5.316241 43.362007 7.913488 44.437506 10.9375 44.4375 C 13.961482 44.437506 16.54423 43.362007 18.65625 41.25 C 20.816226 39.090011 21.874974 36.492764 21.875 33.46875 C 21.874974 30.44477 20.816226 27.893272 18.65625 25.78125 C 16.54423 23.621277 13.961482 22.531278 10.9375 22.53125 z M 10.9375 24.625 C 13.385483 24.625026 15.490731 25.490775 17.21875 27.21875 C 18.946727 28.946771 19.812477 31.020769 19.8125 33.46875 C 19.812477 35.916764 18.946727 38.022012 17.21875 39.75 C 15.490731 41.478009 13.385483 42.343758 10.9375 42.34375 C 8.489488 42.343758 6.41549 41.478009 4.6875 39.75 C 2.959493 38.022012 2.093744 35.916764 2.09375 33.46875 C 2.093744 31.020769 2.959493 28.946771 4.6875 27.21875 C 6.41549 25.490775 8.489488 24.625026 10.9375 24.625 z "
       transform="translate(23.280282,21.84714)"
       id="path3549" />
  </g>
</svg>
